# xmcd
#
# Track frame offsets: 
#        150
#        23237
#        41502
#        59699
#        80939
#        98763
#        116449
#        133836
#        152063
#        172605
#        188904
#        210720
#
# Disc length: 3040 seconds
#
# Revision: 0
# Processed by: cddbd v1.5.2PL0 Copyright (c) Steve Scherf et al.
# Submitted via: ExactAudioCopyFreeDBPlugin 1.0
#
DISCID=a10bde0c
DTITLE=米線 Mi Xian - 米線 原創對唱精選
DYEAR=2009
DGENRE=Country
TTITLE0=天上西藏
TTITLE1=夢中的唐古拉
TTITLE2=金瓶似的小山
TTITLE3=一束花
TTITLE4=遠飛的大雁
TTITLE5=人間天堂
TTITLE6=想你
TTITLE7=心的約會
TTITLE8=阿瑪拉
TTITLE9=花戀
TTITLE10=呼喚
TTITLE11=美麗的康定溜溜的城
EXTD=藏式民歌，米線用自己飽滿圓潤的聲線，底氣十足的唱功精心演繹著一首首經典歌曲。在配樂上也十分出彩，獨特的民族樂器配以西方的時尚弦樂，
EXTD=流行與古典、自然與現代的激情碰撞，將米線天然純淨的音色發揮到了極致。濃郁的西藏風情，藏式民歌的嘹亮、通透在米線的深情演繹下，帶給您
EXTD=前所未有的心靈感受和聽覺衝擊！\n\n悠長綿遠，歡騰熱烈，情思細膩，繼續米線圓潤嘹亮的歌喉特質，延續發燒界傳奇。\n    民族器
EXTD=樂+西洋弦樂，流行+古典，豪爽+婉約，精選的作品更將傳遞濃郁民族風，熱烈異域情，帶來的心靈震撼一如既往。 
EXTT0=
EXTT1=
EXTT2=
EXTT3=
EXTT4=
EXTT5=
EXTT6=
EXTT7=
EXTT8=
EXTT9=
EXTT10=
EXTT11=
PLAYORDER=
